<?xml version="1.0" encoding="UTF-8"?>
<svg version="1.1" xmlns="http://www.w3.org/2000/svg" width="32" height="32">
<path d="M0 0 C10.56 0 21.12 0 32 0 C32 10.56 32 21.12 32 32 C21.44 32 10.88 32 0 32 C0 21.44 0 10.88 0 0 Z " fill="#44A6F8" transform="translate(0,0)"/>
<path d="M0 0 C10.56 0 21.12 0 32 0 C32 10.56 32 21.12 32 32 C21.44 32 10.88 32 0 32 C0 21.44 0 10.88 0 0 Z M2 2 C2 11.24 2 20.48 2 30 C11.24 30 20.48 30 30 30 C30 20.76 30 11.52 30 2 C20.76 2 11.52 2 2 2 Z " fill="#F0F0F0" transform="translate(0,0)"/>
<path d="M0 0 C9.24 0 18.48 0 28 0 C28 9.24 28 18.48 28 28 C18.76 28 9.52 28 0 28 C0 18.76 0 9.52 0 0 Z M2 2 C2 9.92 2 17.84 2 26 C9.92 26 17.84 26 26 26 C26 18.08 26 10.16 26 2 C18.08 2 10.16 2 2 2 Z " fill="#14191E" transform="translate(2,2)"/>
<path d="M0 0 C1.98 0 3.96 0 6 0 C6 1.98 6 3.96 6 6 C4.02 6 2.04 6 0 6 C0 4.02 0 2.04 0 0 Z " fill="#EFF8FF" transform="translate(17,11)"/>
<path d="M0 0 C1.98 0 3.96 0 6 0 C6 1.98 6 3.96 6 6 C4.02 6 2.04 6 0 6 C0 4.02 0 2.04 0 0 Z " fill="#EFF8FF" transform="translate(9,11)"/>
</svg>
